<?xml version="1.0" encoding="UTF-8"?>
<COLLADA xmlns="http://www.collada.org/2005/11/COLLADASchema" version="1.4.1">
    <asset>
        <contributor>
            <author>VCGLab</author>
            <authoring_tool>VCGLib | MeshLab</authoring_tool>
        </contributor>
        <created>월 1 13 13:26:23 2025 GMT</created>
        <modified>월 1 13 13:26:23 2025 GMT</modified>
        <up_axis>Y_UP</up_axis>
    </asset>
    <library_geometries>
        <geometry id="shape0-lib" name="shape0">
            <mesh>
                <source id="shape0-lib-positions" name="position">
                    <float_array id="shape0-lib-positions-array" count="399">0.00966822 -0.00751258 0.0149365 0.0174911 -0.0075 0.000700671 -0.0103446 -0.0075 0.0141216 -0.00534081 -0.00752147 0.0165886 0.0120182 -0.0075 -0.0142809 -0.0174964 -0.00752474 0.00128787 0.0100001 -0.0075 -0.0248884 0.00460308 -0.00749994 -0.0236605 -0.0154286 -0.00749894 -0.00610441 0.007 -0.0075 -0.0295673 -0.0100005 -0.0075 -0.0223448 -0.00520941 -0.00749999 -0.0264152 0.00999991 -0.00749999 -0.111591 0.0105663 -0.0075 -0.121827 0.0171498 -0.00751504 -0.138279 -0.00699999 -0.0075 -0.11352 -0.0100001 -0.0075 -0.115709 -0.0110765 -0.0075 -0.122715 0.0143912 -0.00753047 -0.151096 -0.0136953 -0.00751176 -0.130759 0.00507558 -0.00752223 -0.157772 -0.016594 -0.0075 -0.138182 -0.00576537 -0.00743335 -0.153853 -0.0169231 -0.0075 -0.142754 -0.0150968 -0.00751989 -0.149831 -0.005943 -0.0075 -0.15761 0.0132541 0.0075 0.0102183 0.00612513 0.0075 0.0155867 0.00552257 0.00726707 0.0126289 -0.00421668 0.00736152 0.0131358 0.0173759 0.0075 -2.834e-05 -0.00512178 0.0075 0.0165861 -0.0157063 0.0075 0.00786668 0.0101698 0.00743139 -0.00859839 -0.0102647 0.00729215 0.00944092 0.00129421 0.00749448 -0.013827 -0.0166066 0.0075 -0.0044394 0.0115787 0.0075 -0.0153854 0.01 0.0075 -0.0257778 0.00699992 0.0075 -0.0281131 0.00151487 0.00749994 -0.0235887 -0.00857685 0.0075 -0.0109388 -0.00999985 0.0075 -0.0293698 -0.0106855 0.0075 -0.0188993 -0.00699987 0.00749899 -0.0271222 0.01 0.0075 -0.113932 0.00699994 0.0075 -0.113554 0.0117003 0.00740217 -0.13392 0.0110535 0.0075 -0.124542 -0.00699991 0.0075 -0.11339 0.0172148 0.0075 -0.13998 -0.01 0.0075 -0.115522 0.000191202 0.00749996 -0.117722 0.0141613 0.0075 -0.15146 -0.0112479 0.0075 -0.124489 0.00626846 0.0075 -0.156958 -0.0129196 0.00731516 -0.13703 -0.0166616 0.0075 -0.136869 -0.0135998 0.00732348 -0.141002 -0.0166377 0.0075 -0.144586 -0.00199372 0.0075 -0.158039 -0.0108469 0.0073671 -0.150214 -0.0128349 0.0075 -0.153387 -0.0139101 0.00715725 -0.00132161 0.013892 0.00723044 0.00310124 0.00654382 -0.0074981 -0.0122173 -0.00763384 0.00748418 -0.129336 0.00327563 0.0074788 -0.128304 0.00678617 -0.00749852 -0.129507 0.0136494 0.00718571 -0.142684 0.00996917 0.00721082 -0.150754 0.00146291 0.00735579 -0.155057 -0.00699956 -0.001 -0.116627 -0.00126879 -0.00749914 -0.117781 0.00699991 -0.001 -0.114165 0.007 -0.0075 -0.11174 0.00699998 -0.001 -0.0284713 -0.00116085 -0.001 -0.0211199 -0.00689489 -0.001 -0.0289167 0.007 0.001 -0.0288158 0.00318846 0.001 -0.0243561 -0.0069999 0.001 -0.0251773 0.00699823 0.001 -0.117759 -0.00699996 0.001 -0.113486 0.00795537 -0.0075 0.00713878 0.00964365 -0.0075 0.0102226 0.0137883 -0.0075 -0.000801817 -0.00893927 -0.0075 0.01101 0.00921338 -0.0075 -0.00521811 -0.00741603 -0.0075 0.00760328 0.0106486 -0.0075 -0.00864722 -0.0136673 -0.0075 -0.00484657 -0.00378399 -0.0075 -0.00964145 -0.00995814 -0.0075 -0.00280178 -0.00150333 -0.0075 -0.0138675 0.00961805 0.0075 0.00405435 0.00357388 0.0075 0.00918946 0.0126789 0.0075 0.00414592 0.0068507 0.0075 0.0120949 0.0124275 0.0075 -0.0018156 -0.000620012 0.00137266 0.0136559 -0.00556452 0.0075 0.00910594 0.00970018 0.00565393 -0.00994315 -0.0108236 0.0075 0.00908212 0.000258863 0.0075 -0.01038 -0.0125151 0.0075 -0.00721558 -0.000230819 0.0075 -0.0138097 -0.00921338 0.0075 -0.00521811 0.00966188 -0.0075 -0.139857 -0.00129404 -0.0075 -0.12719 0.0128949 -0.0075 -0.134824 -0.00609212 -0.0075 -0.132364 0.00652987 -0.0075 -0.149921 0.0107334 -0.0075 -0.150459 -0.0103282 -0.0075 -0.132253 0.001396 -0.0075 -0.154628 -0.00231796 -0.00084478 -0.151083 -0.0126736 -0.0075 -0.14366 -0.00732135 -0.0075 -0.153062 0.0053032 0.0075 -0.132942 0.00625015 -0.00431163 -0.1329 0.0100201 0.0075 -0.131196 0.0131352 0.0075 -0.147556 -0.00368008 0.0075 -0.127793 0.0099306 0.0075 -0.151185 -0.00199444 0.0075 -0.130996 0.00609407 0.0075 -0.150081 -0.0109126 0.0075 -0.133606 -0.00975709 0.0075 -0.137749 0.000374151 0.0075 -0.154687 -0.00815125 0.0075 -0.147911 -0.0138194 0.0075 -0.142798 -0.00776219 0.0075 -0.152889</float_array>
                    <technique_common>
                        <accessor count="133" source="#shape0-lib-positions-array" stride="3">
                            <param name="X" type="float"/>
                            <param name="Y" type="float"/>
                            <param name="Z" type="float"/>
                        </accessor>
                    </technique_common>
                </source>
                <source id="shape0-lib-normals" name="normal">
                    <float_array id="shape0-lib-normals-array" count="810">0.000527282 -1 -0.000593919 -0.000305048 -1 0.000111438 -0.00722509 -0.999956 0.00595382 -1.14127e-05 -1 2.17121e-06 -0.000269367 -1 0.000206096 -1.03909e-05 -1 6.66274e-06 -4.19515e-05 -1 0.000167527 6.80066e-05 -1 7.65021e-05 6.23e-05 -1 8.58244e-05 3.09966e-06 -1 1.02007e-07 2.95436e-06 -1 -1.02053e-07 0 -1 0 -0.00124043 -0.999999 0.000417732 0 -1 0 -0.000353725 -1 -1.87079e-05 -3.32245e-05 -1 -7.61975e-05 0.000112196 -1 -4.97402e-05 0 -1 0 8.47386e-05 -1 4.83703e-06 0.000568544 -0.999999 0.00127731 -0.00175522 -0.99984 0.0178197 -0.00497448 -0.999988 0.000357989 0.0165761 -0.999719 0.0169508 -0.00719033 -0.999974 0.000954254 -0.0430645 0.998203 -0.0416669 -0.051229 0.996367 -0.06803 -0.120128 0.991582 -0.0483234 -0.00685337 0.996998 -0.0771202 0.0077085 0.999245 -0.0380827 -0.0480941 0.998316 0.0324478 -0.0172746 0.99983 0.00652115 0.0271629 0.999087 -0.0329731 0.0816292 0.984987 -0.152112 0.00102721 0.999946 0.0103214 0.0462984 0.99853 -0.0281973 0.137528 0.990447 -0.010061 -6.28438e-06 1 9.54621e-07 -4.905e-06 1 6.30136e-06 -0.000453568 1 0.00054968 0.0521611 0.996557 0.064443 0 1 0 0.000727991 1 0.000576387 5.00649e-06 1 -3.86534e-07 0 1 0 -3.10435e-07 1 9.18301e-14 8.48478e-09 1 -1.09002e-08 -3.14373e-07 1 -3.12159e-08 -4.89615e-06 1 -1.7214e-06 0.00224614 0.999945 -0.0102769 -0.0315827 0.999422 -0.0126044 0.000334968 1 -6.81285e-10 -8.27896e-06 1 1.16486e-05 -0.00154085 0.999996 -0.00244812 -0.0592533 0.997527 -0.0378125 3.11919e-06 1 -4.38874e-06 0.000663667 0.999998 -0.00180556 3.94802e-06 1 -5.49381e-07 -0.10971 0.993535 0.0291816 0.00134227 0.999997 -0.0022628 -0.0634092 0.997474 0.0320238 0.00275876 0.999995 -0.00120642 0.0469376 0.997429 -0.0541516 -0.00935063 0.998597 0.0521246 -0.0552809 0.995311 0.0793695 0.0490631 0.998776 -0.00631145 -0.00745176 0.998352 0.0569072 0.0577981 0.998328 0.00017922 0.0387954 0.999114 0.0163256 0.0395249 0.999073 0.0170771 0.0136879 0.999379 0.0324567 0.0141525 0.999356 0.032982 -0.961984 -0.0456638 -0.26926 -0.993592 0.0865548 0.072687 -0.868275 -0.108507 0.484071 -0.633003 0.0941554 0.768402 -0.442173 0.00659766 0.896906 0.109414 -0.00142872 0.993995 0.0884954 -0.0222385 0.995828 0.598112 0.106764 0.794269 0.874944 -0.0578928 0.48075 0.927454 0.0252558 0.373083 0.939284 0.00225442 -0.343134 0.935512 -0.00997796 -0.353154 -1 2.54075e-06 -4.58856e-06 -1 4.36685e-05 2.03231e-06 0.928098 0.0379536 0.370397 0.977234 -0.0280599 -0.210302 0.966362 0.00854788 -0.257042 0.582462 -0.0107896 -0.812786 0.571533 -0.000905784 -0.820579 0.129715 0.0433938 -0.990601 -0.0147332 -0.0247422 -0.999585 -0.39315 0.0772763 -0.916221 -0.645227 -0.082658 -0.759507 -0.917081 0.0442899 -0.396234 -0.968216 -0.0120875 -0.249823 -0.999821 0.0186416 -0.00310024 -0.997363 -0.010777 0.0717753 -0.930908 -0.0359964 0.363476 1 7.60371e-06 -2.65318e-06 1 -5.88247e-06 -2.95811e-07 0.934801 0.156997 -0.31859 -0.506178 -0.0850958 0.858221 0.276417 0.178119 0.944387 0.852604 -0.239842 0.464265 -0.553923 -0.0631721 -0.830168 0.364107 -0.102605 0.925688 0.988619 -0.00889626 -0.150175 0.98227 0.0150204 -0.186871 0.927798 0.0370614 0.371239 0.998436 0.00861776 0.0552451 0.995003 -0.0144354 0.0987994 -0.988381 0.00666447 0.151849 -0.990455 -0.00171647 0.137826 -0.950565 0.0257364 0.309459 -0.916075 -0.0179515 0.400606 -0.924987 -0.0306023 -0.378764 -0.948014 0.0294876 -0.316859 -0.997397 -0.0305473 -0.0653166 0.557022 0.358126 0.749315 0.0466298 -0.349096 -0.935926 -0.924757 0.0632695 -0.375261 -0.640525 -0.290069 -0.711047 0.805448 -0.0191099 -0.592358 0.999999 -0.00063641 -0.0011934 0.969631 0.243759 -0.0199323 -1 -1.33209e-05 1.13337e-08 -1 -2.93048e-06 8.09673e-07 0.230119 0.524475 -0.819739 0 -1 0 0 -1 0 0 -1 0 -0.477774 0.123882 0.869704 -0.164646 -0.311353 0.935923 0.0795815 0.137055 -0.987361 -0.583047 0.232934 0.77833 0 1 0 0 1 0 0 1 0 0.279657 0.28762 0.916006 1 -5.25767e-06 -5.69497e-07 1 -6.44053e-06 -4.80485e-07 0.420893 -0.346476 -0.838334 -0.634635 -0.0725722 -0.769397 -0.758317 0.0700551 -0.648111 -1 0.000250145 1.98529e-05 -1 -1.17947e-05 -2.39805e-07 -0.457191 -0.483068 0.74674 0.515999 -0.0126404 0.856496 0.940677 0.188671 0.282012 0.958726 -0.275497 -0.0703326 0.394909 -0.0892472 0.914375 0.337959 -0.0889078 0.936952 -0.439053 -0.263356 0.858997 -0.57199 -0.190109 0.797926 -0.875858 -0.27199 0.398616 -0.963797 -0.167268 0.207645 -0.93753 -0.28362 -0.201488 -0.646017 -0.0129719 -0.763213 0.0936668 0.101485 -0.990418 0.0608056 0.0699181 -0.995698 0.796296 -0.270518 -0.541048 0.978223 -0.122156 -0.167803 0.946701 -0.184297 0.264182 0.262954 0.193551 0.945195 -0.940607 0.155266 0.301913 -0.929702 0.352378 0.107162 -0.717396 -0.299441 -0.629029 -0.107464 -0.182729 -0.977273 -0.0528197 -0.221896 -0.973639 0.509177 -0.230819 -0.829133 0.749618 -0.288945 -0.595469 0 -1 0 -0.561407 -0.768349 0.307349 0.199762 -0.447281 0.8718 0 -1 0 0.668074 -0.273326 -0.692076 0.917462 0.103982 0.383993 0 -1 0 0 -1 0 0 -1 0 0 -1 0 0 -1 0 0 1 0 0 1 0 0 1 0 -0.206551 0.470398 0.857941 0 1 0 -0.00364331 0.594271 0.804256 0.196691 0.939793 -0.279465 0 1 0 0.193053 0.980801 -0.0275639 0 1 0 0 1 0 -0.990411 0.0923128 0.102788 -0.95497 -0.0833707 0.284748 -0.371493 0.0722948 0.925617 0.260059 -0.0717697 0.962922 0.804114 0.0761323 0.589579 0.93501 -0.0467956 0.351521 0.995284 0.0874568 -0.0419757 0.941745 0.0631095 -0.330353 0.351216 -0.0666868 -0.933917 0.394528 -0.0299308 -0.918396 -0.472514 0.0434771 -0.88025 -0.593729 -0.0808334 -0.800594 -0.510845 0.161385 0.844389 0.967005 0.0953185 -0.236253 0.917519 -0.0741109 -0.390726 0.90232 -0.151794 0.403456 0.00906359 -0.127926 -0.991742 -0.222834 0.0678614 -0.972492 -0.645147 -0.0846339 -0.759357 -0.990901 0.0890932 -0.100881 -0.866036 0.279593 -0.4145 -0.761551 -0.564309 -0.318739 -0.574444 -0.0620499 0.816189 -0.0685684 0.0674923 0.995361 0.476765 -0.0854207 0.874871 0.74043 0.0709063 0.668383 -0.364635 -0.901217 0.234198 -0.431062 -0.414907 -0.801272 0.235213 -0.947152 -0.218122 0 -1 0 0 -1 0 0 -1 0 0 -1 0 -0.535518 -0.609977 0.584079 0.162661 -0.39164 0.905627 0.678456 -0.62493 0.386211 0.347101 0.0244946 -0.937508 -0.929913 0.322354 -0.177057 0 1 0 0 1 0 0 1 0 0 1 0 0 1 0 0 1 0 -0.552134 0.474297 0.685705 0 1 0 0.203485 0.332162 0.921012 0.829279 0.555064 0.0648139 0 1 0 -0.975876 -0.0860759 0.20064 -0.953411 -0.0099328 0.30151 -0.625852 0.0458825 0.778591 -0.488378 -0.0426979 0.871587 0.240348 0.077075 0.967622 0.470267 -0.121306 0.874147 0.972456 0.141585 0.185158 0.650131 -0.497728 -0.574106 0.989515 0.0463375 -0.136794 0.407601 -0.0223742 -0.912886 0.344031 0.0197324 -0.938751 -0.17678 0.0061357 -0.984231 -0.215697 -0.0185463 -0.976284 -0.868886 -0.0198415 -0.494614 -0.856854 -0.0358989 -0.514308 -0.0248088 -0.343106 -0.938969 0.652366 -0.109788 -0.74991 -0.0714207 0.109967 -0.991366 -0.257602 -0.0240863 -0.965951 -0.900401 -0.0146755 -0.434814 -0.666856 0.45665 0.588875 -0.928142 0.234765 0.288857 0.276374 0.0183121 0.960876 -0.125034 0.00698408 0.992128 0.55132 0.069432 0.8314 0.973523 -0.110405 -0.200157 0.957447 -0.245778 0.151288</float_array>
                    <technique_common>
                        <accessor count="270" source="#shape0-lib-normals-array" stride="3">
                            <param name="X" type="float"/>
                            <param name="Y" type="float"/>
                            <param name="Z" type="float"/>
                        </accessor>
                    </technique_common>
                </source>
                <vertices id="shape0-lib-vertices">
                    <input semantic="POSITION" source="#shape0-lib-positions"/>
                </vertices>
                <triangles count="270">
                    <input offset="0" semantic="VERTEX" source="#shape0-lib-vertices"/>
                    <input offset="1" semantic="NORMAL" source="#shape0-lib-normals"/>
                    <p>65 0 1 0 0 0 65 1 4 1 1 1 5 2 3 2 2 2 7 3 6 3 4 3 7 4 4 4 65 4 9 5 6 5 7 5 11 6 7 6 65 6 10 7 11 7 65 7 10 8 65 8 8 8 10 9 15 9 11 9 75 10 12 10 6 10 75 11 6 11 9 11 68 12 14 12 13 12 16 13 15 13 10 13 68 14 13 14 12 14 68 15 12 15 73 15 17 16 73 16 15 16 17 17 15 17 16 17 17 18 68 18 73 18 17 19 19 19 68 19 25 20 20 20 22 20 23 21 19 21 21 21 25 22 22 22 24 22 24 23 19 23 23 23 26 24 64 24 28 24 26 25 28 25 27 25 30 26 64 26 26 26 27 27 28 27 31 27 28 28 29 28 31 28 30 29 33 29 64 29 37 30 33 30 30 30 31 31 29 31 32 31 29 32 34 32 32 32 37 33 35 33 33 33 63 34 32 34 34 34 63 35 36 35 32 35 38 36 40 36 37 36 38 37 39 37 40 37 37 38 40 38 35 38 41 39 36 39 63 39 41 40 43 40 36 40 35 41 40 41 41 41 40 42 42 42 41 42 42 43 43 43 41 43 45 44 46 44 38 44 38 45 46 45 39 45 48 46 46 46 45 46 48 47 52 47 46 47 47 48 67 48 48 48 50 49 47 49 48 49 44 50 51 50 42 50 49 51 51 51 44 51 48 52 67 52 52 52 50 53 69 53 47 53 52 54 51 54 49 54 67 55 66 55 52 55 52 56 54 56 51 56 53 57 69 57 50 57 52 58 66 58 54 58 53 59 70 59 69 59 66 60 57 60 54 60 66 61 56 61 57 61 70 62 55 62 71 62 53 63 55 63 70 63 58 64 57 64 56 64 55 65 60 65 71 65 58 66 59 66 57 66 61 67 59 67 58 67 61 68 62 68 59 68 71 69 60 69 61 69 60 70 62 70 61 70 36 71 8 71 5 71 32 72 36 72 5 72 32 73 5 73 2 73 31 74 32 74 2 74 31 75 2 75 3 75 31 76 3 76 0 76 27 77 31 77 0 77 26 78 27 78 0 78 26 79 0 79 1 79 30 80 26 80 1 80 37 81 1 81 4 81 37 82 30 82 1 82 16 83 10 83 51 83 51 84 10 84 42 84 50 85 48 85 14 85 50 86 14 86 18 86 53 87 50 87 18 87 53 88 18 88 20 88 55 89 53 89 20 89 60 90 55 90 20 90 60 91 20 91 25 91 62 92 60 92 25 92 62 93 25 93 24 93 59 94 62 94 24 94 59 95 24 95 23 95 57 96 59 96 23 96 57 97 23 97 21 97 57 98 21 98 19 98 6 99 12 99 38 99 38 100 12 100 45 100 63 101 34 101 3 101 33 102 35 102 65 102 35 103 41 103 8 103 8 104 41 104 63 104 67 105 47 105 68 105 71 106 61 106 22 106 38 107 37 107 6 107 6 108 37 108 4 108 14 109 48 109 13 109 13 110 45 110 12 110 48 111 45 111 13 111 16 112 54 112 17 112 51 113 54 113 16 113 17 114 54 114 19 114 54 115 57 115 19 115 36 116 43 116 8 116 8 117 43 117 10 117 43 118 42 118 10 118 15 119 73 119 72 119 12 120 75 120 74 120 9 121 7 121 76 121 76 122 7 122 77 122 77 123 11 123 78 123 78 124 15 124 72 124 11 125 15 125 78 125 75 126 9 126 74 126 74 127 9 127 76 127 11 128 77 128 7 128 78 129 76 129 77 129 72 130 76 130 78 130 74 131 76 131 72 131 73 132 12 132 74 132 72 133 73 133 74 133 80 134 81 134 40 134 81 135 44 135 42 135 79 136 81 136 80 136 82 137 83 137 79 137 79 138 83 138 81 138 52 139 83 139 82 139 81 140 83 140 44 140 44 141 83 141 49 141 42 142 40 142 81 142 40 143 39 143 80 143 80 144 39 144 79 144 82 145 79 145 46 145 46 146 79 146 39 146 46 147 52 147 82 147 52 148 49 148 83 148 58 149 19 149 61 149 19 150 24 150 61 150 61 151 24 151 22 151 22 152 20 152 71 152 71 153 20 153 70 153 20 154 18 154 70 154 70 155 18 155 69 155 18 156 14 156 69 156 69 157 14 157 47 157 47 158 14 158 68 158 67 159 68 159 66 159 68 160 19 160 66 160 66 161 19 161 56 161 56 162 19 162 58 162 5 163 8 163 63 163 8 164 65 164 35 164 33 165 65 165 64 165 65 166 0 166 64 166 64 167 0 167 28 167 0 168 3 168 28 168 28 169 3 169 29 169 29 170 3 170 34 170 3 171 5 171 63 171 84 172 86 172 85 172 84 173 85 173 100 173 87 174 84 174 100 174 88 175 86 175 84 175 88 176 102 176 86 176 88 177 90 177 102 177 91 178 89 178 87 178 91 179 93 179 89 179 94 180 90 180 92 180 91 181 94 181 92 181 91 182 92 182 93 182 95 183 96 183 98 183 97 184 95 184 98 184 96 185 101 185 98 185 98 186 101 186 100 186 99 187 95 187 97 187 100 188 101 188 103 188 99 189 102 189 104 189 105 190 103 190 101 190 102 191 106 191 104 191 106 192 105 192 104 192 104 193 105 193 107 193 103 194 105 194 91 194 103 195 91 195 87 195 100 196 103 196 87 196 98 197 100 197 85 197 97 198 98 198 85 198 97 199 85 199 86 199 99 200 97 200 86 200 102 201 99 201 86 201 106 202 102 202 90 202 106 203 90 203 94 203 105 204 106 204 94 204 105 205 94 205 91 205 107 206 105 206 93 206 93 207 105 207 89 207 105 208 101 208 89 208 89 209 101 209 87 209 101 210 96 210 87 210 87 211 96 211 84 211 96 212 95 212 84 212 84 213 95 213 88 213 95 214 99 214 88 214 88 215 104 215 90 215 99 216 104 216 88 216 90 217 104 217 92 217 104 218 107 218 92 218 92 219 107 219 93 219 108 220 110 220 120 220 120 221 110 221 109 221 111 222 120 222 109 222 108 223 113 223 110 223 112 224 113 224 108 224 111 225 109 225 114 225 115 226 113 226 112 226 115 227 112 227 116 227 118 228 115 228 116 228 118 229 116 229 117 229 121 230 120 230 119 230 121 231 122 231 120 231 119 232 125 232 121 232 121 233 125 233 123 233 125 234 127 234 123 234 125 235 128 235 127 235 128 236 131 236 127 236 124 237 129 237 126 237 126 238 129 238 116 238 130 239 131 239 128 239 129 240 132 240 116 240 116 241 132 241 130 241 130 242 132 242 131 242 131 243 117 243 114 243 127 244 131 244 114 244 123 245 127 245 114 245 123 246 114 246 109 246 121 247 123 247 109 247 121 248 109 248 110 248 122 249 121 249 110 249 124 250 122 250 110 250 124 251 110 251 113 251 124 252 113 252 115 252 129 253 124 253 115 253 132 254 115 254 118 254 132 255 129 255 115 255 132 256 118 256 117 256 131 257 132 257 117 257 114 258 128 258 111 258 128 259 125 259 111 259 111 260 125 260 120 260 125 261 119 261 120 261 120 262 122 262 108 262 122 263 124 263 108 263 108 264 124 264 112 264 124 265 126 265 112 265 126 266 116 266 112 266 116 267 130 267 117 267 117 268 128 268 114 268 130 269 128 269 117 269</p>
                </triangles>
            </mesh>
        </geometry>
    </library_geometries>
    <library_visual_scenes>
        <visual_scene id="VisualSceneNode" name="VisualScene">
            <node id="node" name="node">
                <instance_geometry url="#shape0-lib"/>
            </node>
        </visual_scene>
    </library_visual_scenes>
    <scene>
        <instance_visual_scene url="#VisualSceneNode"/>
    </scene>
</COLLADA>
