<?xml version="1.0" encoding="UTF-8"?>
<COLLADA xmlns="http://www.collada.org/2005/11/COLLADASchema" version="1.4.1">
    <asset>
        <contributor>
            <author>VCGLab</author>
            <authoring_tool>VCGLib | MeshLab</authoring_tool>
        </contributor>
        <created>월 1 13 13:16:09 2025 GMT</created>
        <modified>월 1 13 13:16:09 2025 GMT</modified>
        <up_axis>Y_UP</up_axis>
    </asset>
    <library_geometries>
        <geometry id="shape0-lib" name="shape0">
            <mesh>
                <source id="shape0-lib-positions" name="position">
                    <float_array id="shape0-lib-positions-array" count="762">0.00614492 0.008 -0.000578489 0.008 0.00799975 0.0063427 -0.00799976 -0.00800137 0.00193943 -0.008 0.00799992 -0.00799999 -0.00497255 0.00799566 -0.00368869 -0.008 0.00799992 0.008 -0.008 -0.00732727 0.00799979 0.00558949 -0.00790958 -0.00266627 0.008 -0.00799994 -0.008 0.008 0.00675259 -0.00784882 0.008 0.00755343 -0.00722027 0.008 0.00382609 -0.00314952 0.008 0.00196856 -0.00455168 0.008 0.00474177 -0.0015276 0.008 -0.000631712 -0.00487707 0.008 0.00498448 -0.000124305 0.008 0.00486075 0.00109319 0.008 -0.00319602 -0.00376809 0.00675 -0.00707817 -0.00766268 0.008 -0.00762469 -0.00715917 0.008 0.00678498 0.00783116 -0.00799996 -0.0079939 -0.00653399 0.008 0.00621337 0.008 0.008 0.00367613 0.00324836 0.008 -0.00455088 -0.00195254 0.008 0.00216605 0.00449785 0.008 0.00129296 0.00482551 0.008 0.000214283 0.00501188 0.008 -0.00306616 0.00384457 0.008 -0.00448446 0.00214295 0.00800014 -0.00501457 0.000227798 0.008 -0.00120105 0.0048425 0.008 -0.00640669 0.0079259 0.008 -0.0079955 0.008 0.008 -0.0075425 0.00721564 -0.003 0.00691248 -0.00777203 -0.008 0.00752056 -0.00717894 0.00799999 0.00622911 -0.00799999 -0.008 0.00397168 -0.00294222 -0.008 0.00212858 -0.00447336 -0.008 0.000155236 -0.00497517 -0.00475 0.00759491 0.00713576 -0.008 -0.002089 -0.0044286 -0.008 -0.00669036 -0.00799991 0.0035 0.00725688 0.00746224 -0.008 0.00682617 0.00775832 -0.008 -0.00404078 -0.00290513 -0.008 0.00196856 0.00455168 -0.008 -0.00473573 -0.00147752 -0.008 -0.00251188 0.0042002 -0.008 -0.00437653 0.00236533 -0.008 -0.00493778 0.000478018 -0.008 -0.00715145 0.00757221 -0.018 -0.00388369 -0.00309714 -0.018 -0.00189468 -0.00455686 -0.018 -0.00474911 -0.00148145 -0.018 0.000206475 -0.00493814 -0.018 -0.00489554 0.000777657 -0.018 0.00266021 -0.00417687 -0.018 -0.00440443 0.00232784 -0.018 -0.0029252 0.00396356 -0.018 -0.000695885 0.0049304 -0.018 0.00471548 -0.00123714 -0.00800014 0.000330604 0.00502099 -0.0080005 0.00513095 0.000228996 -0.018 0.00394891 0.00303027 -0.018 0.00252268 0.0042754 -0.008 0.00405023 0.00272404 0.018 -0.00471756 0.00158502 0.018 -0.00353591 0.00342601 0.018 -0.0016148 0.00470838 0.018 -0.000248842 0.00498603 0.018 0.00105082 0.00488396 0.018 0.00221732 0.0044611 0.018 0.00384944 0.00302259 0.018 0.00491028 0.000865814 0.018 0.0049124 -0.000755591 0.018 0.00410186 -0.00277775 0.018 0.00236524 -0.0043444 0.018 0.000680996 -0.00493499 0.018 -0.0018375 -0.00455756 0.018 -0.00405317 -0.00285743 0.018 -0.00485427 -0.00107635 -0.00598196 0.0073875 0.000154327 -0.00541055 0.007475 0.00271974 -0.00580338 -0.0073 0.00137256 -0.00473358 -0.0073 0.00360123 -0.00440686 0.0073 0.00401368 -0.00305653 -0.0073 0.0051429 -0.00302352 0.0073 0.00516213 -0.00188229 -0.0073 0.00569177 -0.00183826 0.0073 0.00570607 -0.000907381 -0.0073 0.00591807 -0.000633134 0.0073 0.0059535 0.000681326 -0.0073 0.00593896 0.000743006 0.0073 0.00593129 0.00284427 0.0073 0.00522484 0.00310777 -0.0073 0.00506151 0.00521327 -0.007475 0.00316113 0.00482 0.00751875 0.00359669 0.00578229 -0.0073 0.00151903 0.0058422 0.0073 0.00123762 0.00589263 -0.0073 -0.000691873 0.00602893 0.0073875 -0.000490946 0.00536256 0.00734375 -0.00266311 0.00402447 -0.0073 -0.00437936 0.00331575 0.00755867 -0.00520186 0.00170392 -0.0073875 -0.00578121 -0.000450759 -0.0073 -0.00596147 -0.000817195 0.0073 -0.00592199 -0.00234611 -0.0073875 -0.00556004 -0.00232699 0.0073 -0.00552027 -0.00390256 0.0073 -0.00450556 -0.00402537 -0.0073 -0.00443834 -0.00485874 -0.0073 -0.00349862 -0.00556704 -0.0073 -0.00220359 -0.00594794 -0.0073 -0.000478416 -0.00574193 0.0073 -0.00163524 -0.00414143 0.007825 0.00423396 2.15892e-06 0.00789818 0.00633996 0.000668168 0.0073875 -0.0059602 0.00799999 0.0079985 -0.00639597 -0.00462392 0.007475 -0.0038801 -0.000809446 -0.00779186 0.00632958 -0.00615123 -0.0077375 0.00013895 -0.00449758 -0.00794667 -0.00414117 0.00571439 -0.007475 -0.00199664 0.00325633 -0.00781936 0.00547533 -0.00370527 0.01 -0.00322617 -0.00655807 0.01 -0.00288449 -0.00488666 0.01 -0.000710908 -0.00170641 0.01 -0.00466187 -0.00474061 0.01 0.00153694 -0.00393891 0.01 0.0030139 6.89664e-05 0.01 -0.00498952 0.00126581 0.01 -0.00481826 -0.00258459 0.01 0.00424572 0.00304825 0.01 -0.0038965 0.00154728 0.01 -0.00729632 -0.000872017 0.01 0.00655062 -0.000266915 0.01 0.00492022 0.00456566 0.01 -0.0018512 0.00707948 0.0096 -0.00279915 0.00488573 0.01 0.000789438 0.00275996 0.01 0.00408487 0.00408172 0.01 0.00284771 0.00506737 0.009 -0.00613909 0.00600693 0.0099 0.00498242 -0.00642615 0.009 0.00447888 0.0010359 0.009 -0.00773074 0.00751543 0.008775 0.00158893 0.00365902 0.0088 0.00698346 -0.00779839 0.0088 -0.000758973 -0.00670345 0.009 -0.00421904 -0.00395701 0.009 -0.00679617 -0.00633288 0.008 -0.00382317 -0.00274062 0.0087 0.00724091 0.0036962 0.00798273 -0.00488259 0.00190814 0.00787079 0.00616393 -0.00505789 0.00799771 0.000609517 -0.000662265 0.00758078 -0.00593809 0.00282725 0.0034756 -0.00525628 0.00583387 0.00592868 0.0010657 0.00470885 0.00591849 0.00361657 -0.0011318 0.00225 0.00570352 -0.00564591 0.00428746 -0.00181031 -0.00210675 0.002625 -0.00559422 0.000397141 0.00263156 -0.00591507 0.00528631 0.00425 -0.00249059 0.00367973 0.000609375 0.0044171 0.00220004 0.00428086 0.00547205 -0.00351699 0.00514645 0.00478133 -0.00576513 0.00427669 0.00145852 -0.00413882 0.00510471 -0.00426956 -0.00115645 -1.42109e-17 0.00482956 0.000490236 -1.42109e-17 0.00496508 -0.00487846 -1.42109e-17 0.000561466 -0.0040018 6.25e-05 0.00330303 -0.00566717 0.0003125 -0.000766918 0.00242505 -1.42109e-17 0.0043045 -0.00403857 -1.42109e-17 -0.00275727 0.00496666 -1.42109e-17 -0.000412137 -0.0030502 0.000125 -0.00426557 0.00407425 -1.42109e-17 -0.00278099 -0.000718025 -1.42109e-17 -0.00491391 0.000945414 -1.42109e-17 -0.0048798 0.00259817 -1.42109e-17 -0.00423933 0.00464479 6.25e-05 0.00211243 0.00500331 0.00028125 -0.00194364 0.00093916 0.00025 -0.00559467 -0.00309202 -0.01 0.00384892 -0.00650013 -0.01 0.00401637 -0.00475139 -0.01 0.00110434 -0.0072801 -0.01 -0.00174654 -0.00487977 -0.01 -0.00104304 -0.00110102 -0.01 0.0048543 -0.00411986 -0.01 -0.00272669 0.00125279 -0.01 0.00473531 -0.000367815 -0.01 0.00734583 -0.00282334 -0.01 -0.00410144 -0.000755582 -0.01 -0.00713993 0.0034605 -0.01 0.00358316 -0.000960408 -0.01 -0.0048737 0.00447752 -0.01 0.00218309 0.00490527 -0.01 0.000539305 0.00207145 -0.01 -0.0044138 0.00392156 -0.01 -0.00305676 0.00667037 -0.0099 -0.00391593 0.00471019 -0.01 -0.00162234 -0.000614197 -0.009 0.00779315 0.00518154 -0.0092 -0.00591646 -0.00521246 -0.009 0.00587751 0.00521742 -0.0095 0.00572207 0.00736638 -0.0096 0.00154235 0.00783696 -0.0088 -0.000815293 0.000830768 -0.0089 -0.007864 -0.0040228 -0.009 -0.00672874 -0.00705736 -0.009 -0.00354382 -0.00780672 -0.009 0.000689083 -0.00506236 -0.008 -0.00450509 0.00644978 -0.00805 -0.00278002 -0.000325826 -0.008 0.00619416 -0.00131832 -0.00469495 0.00576873 0.00150109 -0.00267565 0.00561747 0.00464889 -0.00512605 0.00356618 0.000949091 -0.00782066 -0.0061993 -0.000470906 -0.00425 -0.00593558 -0.00574998 -0.00796951 0.00200377 -0.00396886 -0.00425 0.00442455 0.00579546 -0.00636725 -0.00111975 0.00461993 -0.00425 -0.00377774 0.00251133 -0.00344406 -0.00535479 -0.00303589 -0.00427063 -0.00508297 -0.00591466 -0.00428581 -0.000796974 -0.00169856 8.65974e-18 -0.00464834 -0.000237658 -0.000125 -0.00565735 -0.00313091 -0.000125 -0.00420342 0.000117332 2.66454e-18 -0.00497621 -0.00484128 1.23235e-17 -0.000783722 0.00203012 -2.66454e-18 -0.00451681 0.00389882 -9.32587e-18 -0.00307807 0.00358674 -0.00025 -0.00437432 0.00472527 -1.13243e-17 -0.00156188 -0.00434521 7.10543e-18 0.0022781 0.00495225 -1.53211e-17 0.000271643 0.00470725 -1.59872e-17 0.00167304 -0.0019757 -9.4369e-19 0.00452795 0.00387869 -1.65423e-17 0.00308497 0.00215262 -1.27676e-17 0.00445283 -0.00117917 -9.375e-05 0.00509519 -0.00518654 -0.00028125 0.00196818 -0.00513244 -0.00321534 -0.00274387 0.0056333 -0.0005625 -0.00128658 0.00479291 -0.00025 0.00288999</float_array>
                    <technique_common>
                        <accessor count="254" source="#shape0-lib-positions-array" stride="3">
                            <param name="X" type="float"/>
                            <param name="Y" type="float"/>
                            <param name="Z" type="float"/>
                        </accessor>
                    </technique_common>
                </source>
                <source id="shape0-lib-normals" name="normal">
                    <float_array id="shape0-lib-normals-array" count="1524">-0.101691 0.994279 -0.0326833 -0.192884 0.979857 0.0517345 -0.0124835 0.987284 -0.158478 0.000501749 1 -9.77482e-05 0.288261 -0.944505 0.15753 0.0140858 -0.9999 -0.000881965 0.0600774 0.998078 0.0151969 0.00140826 0.999999 4.65661e-07 1.74623e-07 0 1 -1.34323e-05 -1.36109e-05 1 -0.0373081 -0.999304 0.000382032 -0.0368458 -0.999321 0.000277404 -6.75664e-07 -5.57895e-06 -1 -5.28618e-06 1.30902e-07 -1 0.00348296 0.617402 -0.786641 1 -1.5389e-05 1.96074e-05 1 -2.37433e-05 2.67717e-05 1 1.44426e-06 -1.01254e-06 1 9.4939e-07 -1.25771e-06 1 1.55085e-06 -8.75552e-07 1 5.73639e-07 -1.72197e-06 1 2.27221e-06 -3.92995e-07 1 1.5459e-07 8.49728e-08 1 1.72045e-06 -6.58157e-07 1 2.53597e-07 2.57707e-08 1 -2.43599e-07 2.76525e-07 1 5.8907e-07 -1.68807e-06 -0.0311352 -0.380459 0.924273 -0.490871 -0.795599 0.355061 0.0293937 0.774405 0.632007 0.0210058 -0.998424 -0.0520381 1 3.48637e-07 -1.86162e-07 1 0 0 1 -2.43501e-07 -8.2442e-07 1 0 0 -0.655303 0.689791 -0.307841 1 0 0 1 2.72405e-06 -4.22223e-06 1 8.07373e-05 -4.60471e-05 1 -4.62059e-05 1.2826e-08 1 0 0 1 8.21345e-05 4.92361e-05 1 -2.09307e-06 -4.50397e-06 1 0 0 1 0 1.2467e-06 -1 0 0 0.162638 0.852089 0.497488 0.0434083 0.39221 0.918851 -1 0 0 -1 -0.000135972 -0.000108294 -1 0 0 -1 -9.66847e-08 -3.96987e-07 -1 -1.26796e-07 -3.28838e-07 -1 0.000174645 8.13256e-11 -1 -0.000169466 0.000127042 0.229068 -0.196308 0.95341 -1 -1.76442e-07 3.08609e-07 -1 -4.22235e-06 -5.40944e-06 -1 -1.1034e-05 1.36949e-05 -1 -6.35034e-06 -3.0913e-06 -1 5.53005e-05 -9.67246e-05 -1 -9.6073e-06 -9.92662e-07 -1 -3.50202e-05 -4.43826e-05 -1 -6.21272e-10 4.56453e-05 -1 -6.82356e-05 2.45599e-05 -1 -7.67341e-05 7.79794e-05 -1 -7.00185e-05 2.08223e-05 -1 -2.93175e-05 -3.71554e-05 -1 0 0 -1 0 0 -1 0 0 -1 0 0 -1 0 0 -1 0 0 -1 0 0 -1 0 0 -0.0293346 0.199333 0.979493 -0.066669 0.982056 0.176411 -1 0 0 -1 0 0 0.0164033 0.657571 0.753214 0.00449207 -0.958504 0.285043 0.00152822 -0.953303 0.30201 -0.000444473 -0.741694 0.670739 0.012122 -0.701341 0.712723 -0.00526475 -0.39788 0.917422 0.0197704 -0.277367 0.960561 -0.0112968 0.275417 0.961259 0.0157947 0.659687 0.751375 0.00287416 0.917614 0.397462 0.0113162 0.939152 -0.343315 -0.0367151 0.819011 -0.572602 0.0111641 0.638969 -0.769152 -0.0125639 0.296295 -0.955014 -0.00232595 0.24645 -0.969153 -0.00481017 -0.236627 -0.971589 0.00915011 -0.178541 -0.98389 -0.00115671 -0.591656 -0.80619 0.00547011 -0.615293 -0.788279 0.00137544 -0.899126 -0.437688 -0.00478164 -0.881497 -0.472165 -0.00728123 -0.994678 -0.102774 0.00136119 -0.997905 -0.0646802 -0.00758174 -0.963733 0.266762 0.0105196 -0.841514 0.540133 -0.00928494 -0.768125 0.640232 0.00873232 -0.555168 0.831692 -0.00769317 -0.471756 0.881695 0.0049021 -0.199184 0.97995 -0.00293564 -0.118827 0.992911 -0.00163706 0.170258 0.985398 0.00275704 0.340801 0.940131 0.00163885 0.351363 0.936238 -0.000437238 0.637495 0.770454 0.00547809 0.661199 0.750191 -0.00431234 0.876332 0.481689 0.0055917 0.897315 0.441356 -0.00262821 0.994873 0.101099 0.00729011 0.999973 0.00130871 -0.00365658 0.985364 -0.170426 0.0128835 0.928134 -0.372023 -0.00573672 0.870793 -0.491616 0.00913214 0.669808 -0.742478 -0.00735433 0.602461 -0.798115 0.00643456 0.330897 -0.943645 -0.0220418 0.124135 -0.992021 -0.0185332 -0.396868 -0.917689 -0.0142291 -0.801358 -0.598015 0.00827244 -0.911965 -0.410185 -0.0114479 -0.978061 -0.208004 0.0200642 -0.608636 -0.793196 0.0137255 -0.148196 -0.988863 1 0 0 0.0226941 -0.998426 0.051285 1 0 0 1 0 0 1 0 0 1 0 0 1 0 0 1 0 0 1 0 0 1 0 0 1 0 0 0.0062037 0.0782904 0.996911 1 0 0 1 0 0 1 0 0 0.996948 0.00566309 -0.0778606 0.976107 -0.00614794 -0.217204 0.901409 0.0154863 -0.432692 0.790131 -0.000365962 -0.612938 0.676757 0.00565273 -0.736185 0.63876 -0.00043093 -0.769406 0.423447 0.000235529 -0.905921 0.4171 -0.000367289 -0.908861 0.226115 0.000272605 -0.9741 0.201115 -0.00140074 -0.979567 0.01315 0.00217938 -0.999911 -0.0161381 -0.000457504 -0.99987 -0.340068 0.000942265 -0.9404 -0.318671 0.00485201 -0.947853 -0.635768 -0.00283968 -0.771875 -0.669832 0.00399982 -0.742502 -0.944268 -0.0152153 -0.328826 -0.917688 -0.00389138 -0.397282 -0.998752 0.00313784 -0.0498466 -0.994217 0.0106882 -0.10686 -0.956041 0.00486117 0.293193 -0.990335 -0.0173235 0.137612 -0.815425 0.00667257 0.578824 -0.778595 -0.00240019 0.627522 -0.517568 0.022661 0.855342 -0.274891 -0.00762278 0.961445 -0.083116 0.00624587 0.99652 0.0258376 -0.00205473 0.999664 0.20709 0.00255213 0.978319 0.257131 -0.00295132 0.966372 0.54145 -0.00298129 0.840728 0.555418 -0.000843614 0.831571 0.748173 -0.00323875 0.663496 0.656326 0.00904756 0.754423 0.877348 -0.00155441 0.479852 0.895317 -0.00661283 0.445381 0.976476 0.00330435 0.215599 0.991097 -0.00343873 0.1331 0.348043 -0.935764 -0.0566686 0.304735 -0.951779 -0.0354128 0.282782 -0.896668 -0.340619 0.689538 0.316988 -0.651195 0.338706 -0.583589 -0.73804 0.0950591 -0.881245 -0.463001 0.449641 0.0961776 -0.888016 -0.0134497 0.552652 -0.833304 -0.495956 -0.0211685 -0.868089 -0.0742012 -0.972514 -0.220704 -0.948427 0.138867 -0.28496 -0.401644 -0.91141 -0.0895234 -0.934402 0.217285 0.282277 -0.611435 -0.659603 0.437117 -0.0797531 0.995363 0.0537727 0.101201 -0.869187 0.484017 0.0632119 -0.969312 0.237569 0.362656 -0.097882 0.926768 0.0554727 -0.981654 0.182424 0.4284 -0.611551 0.665191 0.840778 0.45531 0.292891 0.327821 -0.940448 0.0899522 -0.259551 -0.646124 -0.717744 -0.204285 -0.149171 -0.967479 0.0100991 -0.640462 -0.767923 0.179162 -0.610067 -0.771828 0.410696 -0.243555 -0.878641 0.495324 0.274089 -0.824336 0.392011 -0.815157 -0.426435 0.186482 -0.981302 0.0476425 0.805239 0.449651 -0.386529 0.864974 -0.497249 -0.0675535 0.965749 -0.147855 0.213231 0.510484 0.813297 0.279201 0.922101 0.169212 0.34799 0.727282 -0.234679 0.64497 0.554492 -0.0226118 0.831882 0.135332 -0.974524 -0.178851 0.0153869 0.959362 0.281759 0.0233337 -0.903819 0.427277 -0.080392 0.961852 0.261492 -0.391291 0.693962 0.604407 -0.71538 -0.517621 0.469361 -0.583571 0.81154 -0.0291254 -0.392705 0.918873 -0.0381544 -0.912681 0.398936 -0.0886741 -0.273875 0.95763 -0.0890969 -0.558917 -0.608619 -0.5632 -0.00106161 -0.678877 -0.734251 -0.00872058 -0.747254 -0.664482 0.582592 -0.701893 -0.409797 -0.0240731 0.993154 -0.114309 -0.00303484 0.879924 -0.475105 -0.00328937 0.684231 -0.729258 -0.00267356 0.277455 -0.960735 -0.0385092 -0.993134 0.110466 -0.227862 0.843178 0.486961 0.0168432 -0.993549 0.112147 0.000220211 -0.963176 0.268871 0.0310651 0.924415 0.380121 0.00593666 -0.530192 0.847857 0.0513885 -0.923639 -0.379802 -0.00193281 -0.0465868 -0.998912 0.0225125 0.201619 -0.979205 -0.003637 0.283261 0.959036 -0.00207637 0.60355 0.797323 -0.0041854 0.63997 0.768388 0.010329 0.813576 0.581367 -0.0122469 0.956527 0.291386 0.00390605 0.999093 -0.0424018 0.17522 -0.455949 0.872587 0 1 0 0 1 0 0 1 0 0 1 0 0 -1 0 0 -1 0 0 1 0 0 1 0 0 1 0 0 1 0 0 1 0 0.111931 0.992487 -0.0494161 0.122871 0.988227 -0.0911582 0 1 0 0.150409 0.988456 -0.0182312 0.0218699 0.999242 0.0322137 0.0237618 0.999395 0.0253867 0.152175 0.988205 -0.0171233 0.0362166 0.999244 0.0141471 -0.16316 0.462117 -0.87168 0.358923 0.211396 -0.909113 0.364978 0.852983 -0.37311 0.689171 0.721478 0.0671752 0.149311 0.782033 0.605087 0.02939 0.435496 0.899711 -0.339272 0.77261 0.536627 -0.22416 0.965144 0.13509 -0.576274 0.808382 0.120109 -0.85763 0.452009 -0.245271 -0.466603 0.731449 -0.497257 -0.198413 0.909811 -0.364522 0.674119 -0.55752 0.484494 -0.0381458 -0.937522 -0.345829 -0.60153 -0.476677 -0.641047 -0.85216 -0.432431 -0.294663 -0.321847 -0.942303 0.0920867 -0.335098 -0.93406 0.123457 -0.209528 -0.961998 0.175097 0.0395792 -0.70185 0.711224 0.355696 -0.898159 0.25844 0.522922 -0.826766 -0.207392 0.498863 -0.854106 -0.147099 0.190852 -0.854338 -0.483407 -0.0543644 -0.955348 -0.29044 -0.139254 -0.978477 0.152285 0.173563 -0.984656 0.0181155 -0.00172399 -0.999999 -2.11851e-05 0.245751 0.0481017 -0.968139 0.662514 0.630358 0.404628 0.75682 -0.0922615 -0.647079 -0.523488 0.170144 -0.834872 0.93763 0.235633 -0.255593 0.386278 0.905826 0.17398 0.633963 0.765447 0.110374 0.631916 -0.0968197 0.768965 -0.280774 0.0734665 0.956958 -0.474342 0.635311 0.60941 -0.828881 0.269407 0.490283 -0.983247 0.178834 -0.0352705 -0.838475 0.384645 -0.386014 -0.475943 0.0779412 -0.876016 -0.650287 0.5934 -0.474345 -0.126954 -0.0317861 -0.991399 0.59172 0.00685086 0.806115 0.172718 -0.172842 0.969688 -0.453583 -0.318358 0.832413 -0.0765125 -0.360279 0.929701 0.198825 -0.173242 0.964602 0.247387 -0.643252 0.724587 -0.667326 -0.708511 0.229541 0.380899 -0.851044 0.361442 -0.267056 -0.961308 -0.067585 -0.712864 -0.484258 -0.507267 0.890789 0.442681 0.102611 0.411634 -0.898059 -0.155072 -0.25375 -0.526858 -0.811192 0.00676932 -0.943901 -0.330158 0.688676 -0.19959 -0.697057 0.127268 -0.935918 -0.32842 0.622543 0.357711 -0.696048 0.181485 -0.00684699 0.98337 -0.0204981 0.00917273 0.999748 -0.141652 -0.00155366 0.989915 -0.361328 0.00583848 0.93242 -0.459326 -0.00977751 0.888214 -0.702799 0.00724413 0.711352 -0.80301 -0.0159329 0.595752 -0.935716 0.0132053 0.352506 -0.992483 -0.0224869 0.1203 -0.991922 0.00718956 -0.126642 -0.931146 -0.0258475 -0.363728 -0.683276 0.0152982 -0.73 -0.702749 0.0079115 -0.711394 -0.266014 -0.0122608 -0.963891 -0.322973 -0.0286973 -0.945973 0.0820205 0.00173959 -0.996629 0.279395 -0.0161494 -0.96004 0.472973 0.016115 -0.880929 0.672637 -0.0257735 -0.739524 0.878705 -0.0194385 -0.476969 0.952247 0.0166133 -0.304876 0.997868 -0.007431 -0.0648341 0.968941 0.0319951 0.245214 0.905084 -0.0102336 0.425109 0.836496 -0.00218658 0.547968 0.582736 -0.0467386 0.811316 0.267951 0.00220182 0.96343 -0.658013 -0.144442 -0.739024 -0.8116 -0.177871 -0.556478 -0.795564 -0.149839 -0.587049 -0.999326 -0.00422427 -0.0364602 -0.906925 -0.22305 0.357401 -0.813927 -0.0893069 0.574061 -0.542883 -0.18634 0.818875 0.188792 -0.200157 0.961402 0.906383 -0.114373 0.406679 0.909288 -0.112837 0.400578 0.979761 -0.184926 0.0766273 0.989998 -0.0860077 -0.111831 0.759148 -0.141688 -0.63531 0.638858 -0.299618 -0.708582 0.281949 -0.064615 -0.957251 -0.125046 -0.160187 -0.979134 -0.284086 -0.36417 -0.886947 0 -1 0 0 -1 0 0 -1 0 0 -1 0 0 -1 0 0 -1 0 0 -1 0 0 -1 0 0 -1 0 0.108345 -0.991835 0.0672602 0 -1 0 0.0839725 -0.983391 0.160905 0.148463 -0.98302 0.107845 0 -1 0 0.159287 -0.981592 0.10538 0.145279 -0.988668 0.0378048 0.0244788 -0.999378 -0.0253849 0.166364 -0.98595 -0.0150132 0.0254855 -0.999071 -0.0347455 0.0997647 -0.994128 0.0419182 0.0310251 -0.999373 -0.0170573 0.290646 -0.330118 0.89808 0.768094 -0.637238 -0.062919 0.210869 -0.863085 -0.458932 0.229555 -0.744061 -0.627437 -0.210759 -0.306973 -0.928089 -0.314112 -0.870024 -0.37999 -0.492247 -0.733296 -0.46901 -0.980369 -0.0935617 -0.173557 -0.755603 -0.646998 0.102266 -0.852024 0.304241 0.42602 -0.333834 -0.714488 0.614868 -0.342905 -0.452676 0.823104 0.800812 0.379817 -0.463076 0.820098 0.367234 -0.438837 -0.205021 0.846035 0.492129 -0.205816 0.973164 0.10291 -0.19376 0.977292 0.0857774 -0.478841 0.8738 -0.0847704 -0.570518 0.615649 -0.543585 -0.157099 0.871148 -0.46521 -0.141516 0.835186 -0.531449 0.358882 0.771323 -0.525609 0.248359 0.872686 -0.420402 0.044176 0.943328 0.328909 0.341001 0.905542 0.252414 0.268597 0.956337 0.115216 0.261916 0.796311 0.545242 -0.00854156 -0.999956 0.00378133 0.0201568 0.999198 0.034593 0.00626839 0.99998 -0.000838711 0.582878 -0.812304 0.0204037 0.0462416 -0.605619 0.79441 0.209855 -0.931211 0.298005 0.168138 -0.978487 0.119555 0.726631 -0.343508 -0.594987 0.585102 -0.0527031 -0.809245 -0.314555 -0.0551046 -0.947638 -0.271213 -0.00177262 -0.962518 -0.662099 0.250318 -0.706375 -0.941364 0.104321 -0.32086 -0.98698 -0.122959 -0.103692 -0.470866 -0.311665 0.825318 0.918625 0.0143134 -0.394871 0.154497 0.13374 -0.9789 -0.203661 0.89122 -0.405277 -0.0298548 0.985783 -0.165347 -0.836606 0.338382 -0.430799 0.0492491 0.977511 -0.205055 0.18167 0.870891 -0.456667 -0.982145 0.154431 -0.107437 0.174646 0.958145 -0.226839 -0.334479 0.940844 0.0541922 0.548192 0.786759 -0.283717 0.566789 0.763742 -0.308949 -0.436348 0.737851 0.514953 -0.388656 -0.825468 0.409328 0.540009 0.839 -0.0668498 0.767251 0.632347 0.107069 0.638184 0.761756 0.111571 0.293875 0.940158 0.172454 0.166938 0.359048 0.918268 0.320494 0.856577 0.404424 0.511482 0.235197 0.82648 0.581811 0.0243589 -0.812959 -0.0504731 0.0238817 -0.99844 -0.18901 -0.010729 -0.981917 -0.462597 0.0165869 -0.886413 -0.621037 -0.0130701 -0.783672 -0.80906 0.00455559 -0.587709 -0.862449 -0.00600078 -0.506109 -0.967728 0.00938769 -0.251824 -0.98506 1.87353e-05 -0.172213 -0.992393 0.00795098 0.122852 -0.995952 0.000958442 0.089878 -0.876292 -0.00159123 0.481778 -0.878031 -0.000976855 0.478603 -0.591446 0.000373208 0.806345 -0.61004 0.00564049 0.79235 -0.233524 0.00905032 0.972309 -0.149921 0.0262894 0.988348 0.177678 -0.00906134 0.984047 0.382927 0.00744802 0.923749 0.295064 0.0190555 0.955287 0.727184 0.0297314 0.685799 0.893816 -0.0225373 0.447868 0.91137 -0.0141746 0.411345 0.998215 -0.00229455 -0.0596784 0.986903 -0.0213182 -0.159898 0.855462 0.0259611 -0.517214 0.688296 -0.0276123 -0.724904 0.450731 0.0102946 -0.8926 -0.428338 0.143548 0.892144 -0.59858 0.280708 0.75027 -0.848597 0.0646213 0.525078 -0.985398 0.0729285 0.153858 -0.929015 0.309243 -0.203225 -0.708152 0.130968 -0.693807 -0.311041 0.19042 -0.931125 -0.447378 0.0853444 -0.890263 0.176168 0.0563239 -0.982747 0.31819 0.178667 -0.931039 0.607937 0.0387506 -0.793039 0.83216 0.134716 -0.537923 0.980292 0.032983 0.194782 0.971589 0.00411995 0.236639 0.593557 0.0933221 0.799363 -0.0516933 0.146175 0.987907</float_array>
                    <technique_common>
                        <accessor count="508" source="#shape0-lib-normals-array" stride="3">
                            <param name="X" type="float"/>
                            <param name="Y" type="float"/>
                            <param name="Z" type="float"/>
                        </accessor>
                    </technique_common>
                </source>
                <vertices id="shape0-lib-vertices">
                    <input semantic="POSITION" source="#shape0-lib-positions"/>
                </vertices>
                <triangles count="508">
                    <input offset="0" semantic="VERTEX" source="#shape0-lib-vertices"/>
                    <input offset="1" semantic="NORMAL" source="#shape0-lib-normals"/>
                    <p>0 0 121 0 106 0 99 1 1 1 0 1 119 2 1 2 99 2 1 3 121 3 0 3 124 4 2 4 125 4 2 5 21 5 125 5 4 6 5 6 118 6 3 7 5 7 4 7 22 8 5 8 33 8 33 9 5 9 6 9 7 10 33 10 127 10 8 11 33 11 7 11 3 12 37 12 43 12 43 13 37 13 8 13 10 14 9 14 35 14 10 15 121 15 9 15 121 16 37 16 9 16 121 17 11 17 37 17 11 18 12 18 37 18 121 19 13 19 11 19 12 20 14 20 37 20 121 21 15 21 13 21 16 22 1 22 23 22 121 23 1 23 15 23 15 24 1 24 16 24 17 25 8 25 14 25 14 26 8 26 37 26 8 27 18 27 43 27 8 28 19 28 18 28 44 29 20 29 1 29 19 30 7 30 21 30 1 31 22 31 23 31 23 32 22 32 25 32 20 33 22 33 1 33 24 34 8 34 17 34 19 35 8 35 7 35 22 36 26 36 25 36 22 37 27 37 26 37 24 38 30 38 8 38 30 39 33 39 8 39 28 40 33 40 29 40 29 41 33 41 30 41 27 42 33 42 31 42 31 43 33 43 28 43 22 44 33 44 27 44 32 45 34 45 33 45 3 46 36 46 35 46 3 47 35 47 37 47 39 48 38 48 3 48 64 49 3 49 38 49 40 50 39 50 3 50 43 51 42 51 40 51 43 52 40 52 3 52 5 53 3 53 64 53 5 54 64 54 67 54 45 55 41 55 5 55 5 56 67 56 47 56 21 57 46 57 42 57 21 58 42 58 43 58 48 59 46 59 21 59 63 60 5 60 47 60 51 61 48 61 21 61 6 62 63 62 49 62 6 63 5 63 63 63 2 64 51 64 21 64 2 65 49 65 50 65 2 66 50 66 51 66 2 67 6 67 49 67 53 68 56 68 54 68 55 69 56 69 53 69 57 70 59 70 55 70 55 71 58 71 56 71 59 72 58 72 55 72 60 73 62 73 59 73 59 74 62 74 58 74 61 75 62 75 60 75 63 76 66 76 61 76 62 77 65 77 64 77 61 78 65 78 62 78 66 79 65 79 61 79 67 80 65 80 66 80 57 81 51 81 50 81 59 82 57 82 50 82 60 83 59 83 50 83 60 84 50 84 49 84 61 85 60 85 49 85 61 86 49 86 63 86 66 87 63 87 47 87 66 88 47 88 67 88 64 89 65 89 67 89 62 90 64 90 38 90 58 91 62 91 38 91 58 92 38 92 39 92 56 93 58 93 39 93 56 94 39 94 40 94 56 95 40 95 42 95 54 96 56 96 42 96 53 97 54 97 42 97 53 98 42 98 46 98 55 99 46 99 48 99 55 100 53 100 46 100 57 101 48 101 51 101 57 102 55 102 48 102 29 103 30 103 68 103 29 104 68 104 69 104 28 105 29 105 69 105 28 106 69 106 70 106 31 107 28 107 70 107 31 108 70 108 71 108 27 109 31 109 71 109 26 110 27 110 72 110 26 111 72 111 73 111 25 112 26 112 73 112 23 113 25 113 73 113 23 114 73 114 74 114 16 115 23 115 74 115 16 116 74 116 75 116 15 117 16 117 75 117 15 118 75 118 76 118 13 119 15 119 76 119 13 120 76 120 77 120 11 121 13 121 77 121 11 122 77 122 78 122 12 123 11 123 78 123 12 124 78 124 79 124 14 125 12 125 79 125 17 126 14 126 80 126 24 127 17 127 81 127 24 128 81 128 82 128 30 129 24 129 82 129 80 130 81 130 17 130 79 131 80 131 14 131 79 132 81 132 80 132 68 133 30 133 82 133 68 134 82 134 81 134 77 135 79 135 78 135 77 136 81 136 79 136 77 137 68 137 81 137 77 138 69 138 68 138 76 139 69 139 77 139 76 140 70 140 69 140 75 141 71 141 70 141 75 142 70 142 76 142 72 143 27 143 71 143 73 144 72 144 71 144 74 145 71 145 75 145 74 146 73 146 71 146 116 147 83 147 85 147 83 148 84 148 85 148 85 149 84 149 86 149 84 150 87 150 86 150 86 151 87 151 88 151 87 152 89 152 88 152 88 153 89 153 90 153 89 154 91 154 90 154 90 155 91 155 92 155 91 156 93 156 92 156 92 157 93 157 94 157 93 158 95 158 94 158 94 159 95 159 97 159 95 160 96 160 97 160 96 161 99 161 97 161 97 162 99 162 98 162 98 163 99 163 100 163 99 164 101 164 100 164 100 165 101 165 102 165 101 166 103 166 102 166 103 167 104 167 102 167 102 168 104 168 126 168 126 169 104 169 105 169 104 170 106 170 105 170 105 171 106 171 107 171 106 172 120 172 107 172 107 173 120 173 108 173 120 174 109 174 108 174 108 175 109 175 110 175 109 176 111 176 110 176 111 177 112 177 110 177 110 178 112 178 113 178 113 179 112 179 114 179 112 180 122 180 114 180 114 181 122 181 115 181 122 182 117 182 115 182 115 183 117 183 116 183 117 184 83 184 116 184 4 185 118 185 83 185 118 186 84 186 83 186 87 187 84 187 89 187 84 188 118 188 89 188 89 189 118 189 91 189 91 190 118 190 93 190 118 191 119 191 93 191 93 192 119 192 95 192 119 193 99 193 95 193 95 194 99 194 96 194 0 195 103 195 99 195 99 196 103 196 101 196 0 197 104 197 103 197 106 198 104 198 0 198 121 199 120 199 106 199 4 200 120 200 121 200 109 201 120 201 111 201 4 202 122 202 120 202 120 203 122 203 111 203 111 204 122 204 112 204 4 205 83 205 122 205 122 206 83 206 117 206 97 207 127 207 94 207 127 208 123 208 94 208 94 209 123 209 92 209 92 210 123 210 90 210 90 211 123 211 88 211 123 212 2 212 88 212 88 213 2 213 86 213 2 214 124 214 86 214 86 215 124 215 85 215 85 216 124 216 116 216 116 217 124 217 115 217 115 218 124 218 114 218 124 219 125 219 114 219 114 220 125 220 113 220 113 221 125 221 110 221 21 222 110 222 125 222 110 223 107 223 108 223 21 224 107 224 110 224 7 225 107 225 21 225 107 226 7 226 105 226 105 227 7 227 126 227 102 228 126 228 100 228 126 229 98 229 100 229 7 230 98 230 126 230 127 231 98 231 7 231 98 232 127 232 97 232 43 233 18 233 19 233 21 234 43 234 19 234 36 235 3 235 4 235 36 236 4 236 121 236 36 237 121 237 10 237 36 238 10 238 35 238 37 239 35 239 9 239 123 240 6 240 2 240 127 241 33 241 34 241 123 242 127 242 34 242 6 243 123 243 34 243 52 244 6 244 34 244 52 245 34 245 32 245 6 246 52 246 32 246 6 247 32 247 33 247 45 248 5 248 22 248 45 249 22 249 20 249 44 250 45 250 20 250 41 251 45 251 44 251 1 252 41 252 44 252 41 253 1 253 119 253 5 254 119 254 118 254 5 255 41 255 119 255 130 256 128 256 129 256 131 257 129 257 128 257 132 258 130 258 129 258 131 259 138 259 129 259 132 260 129 260 139 260 133 261 132 261 139 261 134 262 138 262 131 262 135 263 138 263 134 263 136 264 133 264 139 264 137 265 138 265 135 265 139 266 140 266 136 266 142 267 138 267 137 267 142 268 137 268 141 268 139 269 144 269 140 269 142 270 141 270 143 270 147 271 144 271 139 271 147 272 145 272 144 272 147 273 142 273 143 273 147 274 143 274 145 274 149 275 154 275 138 275 146 276 149 276 138 276 142 277 146 277 138 277 147 278 150 278 142 278 151 279 147 279 139 279 156 280 151 280 139 280 148 281 156 281 139 281 129 282 148 282 139 282 152 283 148 283 129 283 153 284 152 284 129 284 154 285 153 285 129 285 154 286 129 286 138 286 151 287 150 287 147 287 154 288 157 288 155 288 153 289 154 289 155 289 152 290 153 290 155 290 159 291 152 291 155 291 148 292 152 292 159 292 156 293 148 293 159 293 151 294 156 294 158 294 150 295 151 295 158 295 142 296 150 296 157 296 146 297 142 297 157 297 149 298 146 298 157 298 154 299 149 299 157 299 158 300 156 300 159 300 150 301 158 301 157 301 157 302 159 302 155 302 160 303 161 303 167 303 159 304 161 304 160 304 161 305 157 305 168 305 159 306 157 306 161 306 168 307 157 307 162 307 162 308 157 308 163 308 158 309 163 309 157 309 158 310 170 310 163 310 158 311 171 311 164 311 159 312 171 312 158 312 159 313 172 313 171 313 159 314 165 314 172 314 159 315 173 315 165 315 173 316 160 316 166 316 159 317 160 317 173 317 167 318 166 318 160 318 170 319 169 319 163 319 170 320 158 320 164 320 174 321 164 321 177 321 175 322 164 322 174 322 175 323 169 323 164 323 179 324 169 324 175 324 176 325 177 325 178 325 187 326 169 326 179 326 180 327 176 327 178 327 180 328 178 328 182 328 188 329 187 329 181 329 188 330 181 330 183 330 189 331 184 331 182 331 189 332 185 332 184 332 188 333 183 333 186 333 189 334 186 334 185 334 189 335 188 335 186 335 131 336 184 336 134 336 184 337 185 337 134 337 134 338 185 338 135 338 185 339 186 339 135 339 135 340 186 340 137 340 186 341 183 341 137 341 137 342 183 342 141 342 183 343 181 343 141 343 141 344 181 344 143 344 181 345 187 345 143 345 143 346 187 346 145 346 145 347 187 347 144 347 187 348 179 348 144 348 144 349 179 349 140 349 179 350 175 350 140 350 175 351 174 351 140 351 140 352 174 352 136 352 174 353 177 353 136 353 136 354 177 354 133 354 133 355 177 355 132 355 177 356 176 356 132 356 132 357 176 357 130 357 176 358 180 358 130 358 130 359 180 359 128 359 180 360 182 360 128 360 128 361 182 361 131 361 182 362 184 362 131 362 182 363 173 363 166 363 182 364 165 364 173 364 178 365 165 365 182 365 178 366 172 366 165 366 177 367 172 367 178 367 177 368 171 368 172 368 164 369 171 369 177 369 169 370 170 370 164 370 187 371 163 371 169 371 187 372 162 372 163 372 188 373 162 373 187 373 188 374 168 374 162 374 188 375 161 375 168 375 189 376 161 376 188 376 189 377 167 377 161 377 189 378 166 378 167 378 189 379 182 379 166 379 190 380 191 380 192 380 192 381 191 381 193 381 190 382 198 382 191 382 194 383 192 383 193 383 195 384 198 384 190 384 196 385 194 385 193 385 197 386 198 386 195 386 199 387 196 387 193 387 199 388 193 388 200 388 212 389 198 389 197 389 200 390 202 390 199 390 212 391 197 391 201 391 212 392 201 392 203 392 200 393 205 393 202 393 213 394 212 394 203 394 213 395 203 395 204 395 207 396 205 396 200 396 213 397 204 397 208 397 207 398 206 398 205 398 207 399 213 399 208 399 207 400 208 400 206 400 212 401 209 401 198 401 207 402 214 402 213 402 200 403 210 403 207 403 215 404 210 404 200 404 216 405 215 405 200 405 193 406 216 406 200 406 217 407 216 407 193 407 218 408 217 408 193 408 218 409 193 409 191 409 211 410 218 410 191 410 198 411 211 411 191 411 209 412 211 412 198 412 220 413 207 413 210 413 220 414 214 414 207 414 211 415 209 415 221 415 218 416 211 416 221 416 219 417 218 417 221 417 217 418 218 418 219 418 216 419 217 419 219 419 225 420 216 420 219 420 215 421 216 421 225 421 215 422 225 422 220 422 210 423 215 423 220 423 213 424 214 424 220 424 213 425 220 425 221 425 212 426 213 426 221 426 209 427 212 427 221 427 227 428 219 428 221 428 220 429 225 429 227 429 221 430 220 430 227 430 222 431 227 431 223 431 227 432 224 432 223 432 227 433 229 433 224 433 225 434 229 434 227 434 229 435 225 435 230 435 230 436 225 436 231 436 226 437 225 437 232 437 219 438 232 438 225 438 219 439 251 439 232 439 219 440 233 440 251 440 219 441 227 441 233 441 227 442 222 442 228 442 230 443 252 443 229 443 226 444 231 444 225 444 234 445 235 445 236 445 237 446 235 446 234 446 238 447 236 447 251 447 239 448 235 448 237 448 239 449 241 449 235 449 238 450 251 450 250 450 240 451 241 451 239 451 243 452 238 452 250 452 252 453 241 453 240 453 242 454 252 454 240 454 249 455 243 455 250 455 249 456 246 456 243 456 252 457 242 457 244 457 253 458 252 458 244 458 253 459 244 459 245 459 253 460 245 460 247 460 223 461 248 461 249 461 253 462 247 462 248 462 223 463 253 463 248 463 246 464 249 464 195 464 195 465 249 465 197 465 249 466 248 466 197 466 197 467 248 467 201 467 248 468 247 468 201 468 201 469 247 469 203 469 247 470 245 470 203 470 203 471 245 471 204 471 245 472 244 472 204 472 244 473 242 473 204 473 204 474 242 474 208 474 208 475 242 475 206 475 242 476 240 476 206 476 206 477 240 477 205 477 240 478 239 478 205 478 239 479 237 479 205 479 205 480 237 480 202 480 237 481 234 481 202 481 202 482 234 482 199 482 234 483 236 483 199 483 199 484 236 484 196 484 236 485 238 485 196 485 196 486 238 486 194 486 194 487 238 487 192 487 238 488 243 488 192 488 192 489 243 489 190 489 243 490 246 490 190 490 190 491 246 491 195 491 249 492 228 492 222 492 250 493 228 493 249 493 250 494 227 494 228 494 250 495 233 495 227 495 251 496 233 496 250 496 236 497 232 497 251 497 236 498 226 498 232 498 235 499 226 499 236 499 235 500 231 500 226 500 241 501 231 501 235 501 241 502 230 502 231 502 241 503 252 503 230 503 253 504 229 504 252 504 253 505 224 505 229 505 223 506 224 506 253 506 249 507 222 507 223 507</p>
                </triangles>
            </mesh>
        </geometry>
    </library_geometries>
    <library_visual_scenes>
        <visual_scene id="VisualSceneNode" name="VisualScene">
            <node id="node" name="node">
                <instance_geometry url="#shape0-lib"/>
            </node>
        </visual_scene>
    </library_visual_scenes>
    <scene>
        <instance_visual_scene url="#VisualSceneNode"/>
    </scene>
</COLLADA>
